<!-- Generated by IcoMoon.io -->
<svg version="1.1" xmlns="http://www.w3.org/2000/svg" width="32" height="32" viewBox="0 0 32 32">
<title>arrow-down</title>
<path d="M32 8.512c0 0.288-0.096 0.512-0.288 0.704l-15.008 14.976c-0.192 0.192-0.416 0.288-0.704 0.288s-0.512-0.096-0.704-0.288l-15.008-14.976c-0.096-0.096-0.192-0.192-0.224-0.32s-0.064-0.256-0.064-0.384c0-0.128 0.032-0.256 0.064-0.384s0.128-0.256 0.224-0.352c0.384-0.384 1.024-0.384 1.408 0l14.304 14.304 14.272-14.272c0.384-0.384 1.024-0.384 1.408 0 0.224 0.192 0.32 0.416 0.32 0.704z"></path>
</svg>
