<!-- Generated by IcoMoon.io -->
<svg version="1.1" xmlns="http://www.w3.org/2000/svg" width="3466" height="1024" viewBox="0 0 3466 1024">
<title></title>
<g id="icomoon-ignore">
</g>
<path fill="#fff" d="M3069.906 1024h-37.156v-37.012h37.156zM1484.575 1024h-37.156v-37.012h37.156zM3069.906 497.608h-37.156v-37.012h37.156zM2277.243 1024h-37.156v-37.012h37.156zM691.912 1024h-37.156v-37.012h37.156zM2277.243 497.608h-37.156v-37.012h37.156zM3466.24 1024h-37.156v-37.012h37.156zM1880.909 1024h-37.156v-37.012h37.156zM3466.24 497.608h-37.156v-37.012h37.156zM1880.909 497.608h-37.156v-37.012h37.156zM2673.577 1024h-37.156v-37.012h37.156zM1088.246 1024h-37.156v-37.012h37.156zM2673.577 497.608h-37.156v-37.012h37.156zM3069.906 760.801h-37.156v-37.012h37.156zM1484.575 760.801h-37.156v-37.012h37.156zM3069.906 234.409h-37.156v-37.012h37.156zM2277.243 760.801h-37.156v-37.012h37.156zM3466.24 760.801h-37.156v-37.012h37.156zM1880.909 760.801h-37.156v-37.012h37.156zM3466.24 234.409h-37.156v-37.012h37.156zM2673.577 760.801h-37.156v-37.012h37.156zM2871.741 1024h-37.156v-37.012h37.156zM1286.41 1024h-37.156v-37.012h37.156zM2871.741 497.608h-37.156v-37.012h37.156zM2079.073 1024h-37.156v-37.012h37.156zM494.444 1024h-37.156v-37.012h37.156zM2079.073 497.608h-37.156v-37.012h37.156zM494.444 499.133h-37.156v-37.012h37.156zM3268.076 1024h-37.156v-37.012h37.156zM1682.744 1024h-37.156v-37.012h37.156zM3268.076 497.608h-37.156v-37.012h37.156zM2475.407 1024h-37.156v-37.012h37.156zM890.076 1024h-37.156v-37.012h37.156zM2475.407 497.608h-37.156v-37.012h37.156zM890.076 497.608h-37.156v-37.012h37.156zM2871.741 760.801h-37.156v-37.012h37.156zM2871.741 234.409h-37.156v-37.012h37.156zM2079.073 760.801h-37.156v-37.012h37.156zM3268.076 760.801h-37.156v-37.012h37.156zM1682.744 760.801h-37.156v-37.012h37.156zM3268.076 234.409h-37.156v-37.012h37.156zM2475.407 760.801h-37.156v-37.012h37.156zM890.076 760.801h-37.156v-37.012h37.156zM2475.407 234.409h-37.156v-37.012h37.156zM3069.906 892.401h-37.156v-37.012h37.156zM1484.575 892.401h-37.156v-37.012h37.156zM3069.906 366.008h-37.156v-37.012h37.156zM1484.575 366.008h-37.156v-37.012h37.156zM2277.243 892.401h-37.156v-37.012h37.156zM691.912 892.401h-37.156v-37.012h37.156zM2277.243 366.008h-37.156v-37.012h37.156zM3466.24 892.401h-37.156v-37.012h37.156zM1880.909 892.401h-37.156v-37.012h37.156zM3466.24 366.008h-37.156v-37.012h37.156zM2673.577 892.401h-37.156v-37.012h37.156zM1088.246 892.401h-37.156v-37.012h37.156zM2673.577 366.008h-37.156v-37.012h37.156zM3069.906 629.207h-37.156v-37.012h37.156zM1484.575 629.207h-37.156v-37.012h37.156zM3069.906 102.81h-37.156v-37.012h37.156zM2277.243 629.207h-37.156v-37.012h37.156zM691.912 629.207h-37.156v-37.012h37.156zM3466.24 629.207h-37.156v-37.012h37.156zM1880.909 629.207h-37.156v-37.012h37.156zM3466.24 102.81h-37.156v-37.012h37.156zM2673.577 629.207h-37.156v-37.012h37.156zM2871.741 892.401h-37.156v-37.012h37.156zM1286.41 892.401h-37.156v-37.012h37.156zM2871.741 366.008h-37.156v-37.012h37.156zM2079.073 892.401h-37.156v-37.012h37.156zM494.444 890.209h-37.156v-37.012h37.156zM2079.073 366.008h-37.156v-37.012h37.156zM3268.076 892.401h-37.156v-37.012h37.156zM1682.744 892.401h-37.156v-37.012h37.156zM3268.076 366.008h-37.156v-37.012h37.156zM1682.744 366.008h-37.156v-37.012h37.156zM2475.407 892.401h-37.156v-37.012h37.156zM890.076 892.401h-37.156v-37.012h37.156zM2871.741 629.207h-37.156v-37.012h37.156zM2871.741 102.81h-37.156v-37.012h37.156zM2079.073 629.207h-37.156v-37.012h37.156zM494.444 627.779h-37.156v-37.012h37.156zM3268.076 629.207h-37.156v-37.012h37.156zM1682.744 629.207h-37.156v-37.012h37.156zM3268.076 102.81h-37.156v-37.012h37.156zM2475.407 629.207h-37.156v-37.012h37.156zM890.076 629.207h-37.156v-37.012h37.156zM3069.906 958.203h-37.156v-37.012h37.156zM1484.575 958.203h-37.156v-37.012h37.156zM3069.906 431.805h-37.156v-37.012h37.156zM2277.243 958.203h-37.156v-37.012h37.156zM691.912 958.203h-37.156v-37.012h37.156zM2277.243 431.805h-37.156v-37.012h37.156zM3466.24 958.203h-37.156v-37.012h37.156zM1880.909 958.203h-37.156v-37.012h37.156zM3466.24 431.805h-37.156v-37.012h37.156zM1880.909 431.805h-37.156v-37.012h37.156zM2673.577 958.203h-37.156v-37.012h37.156zM1088.246 958.203h-37.156v-37.012h37.156zM2673.577 431.805h-37.156v-37.012h37.156zM3069.906 695.004h-37.156v-37.012h37.156zM3069.906 168.612h-37.156v-37.012h37.156zM2277.243 695.004h-37.156v-37.012h37.156zM3466.24 695.004h-37.156v-37.012h37.156zM1880.909 695.004h-37.156v-37.012h37.156zM3466.24 168.612h-37.156v-37.012h37.156zM2673.577 695.004h-37.156v-37.012h37.156zM2871.741 958.203h-37.156v-37.012h37.156zM1286.41 958.203h-37.156v-37.012h37.156zM2871.741 431.805h-37.156v-37.012h37.156zM2079.073 958.203h-37.156v-37.012h37.156zM494.444 957.107h-37.156v-37.012h37.156zM2079.073 431.805h-37.156v-37.012h37.156zM494.444 432.241h-37.156v-37.012h37.156zM293.576 432.241h-37.156v-37.012h37.156zM3268.076 958.203h-37.156v-37.012h37.156zM1682.744 958.203h-37.156v-37.012h37.156zM3268.076 431.805h-37.156v-37.012h37.156zM2475.407 958.203h-37.156v-37.012h37.156zM890.076 958.203h-37.156v-37.012h37.156zM890.076 431.805h-37.156v-37.012h37.156zM2871.741 695.004h-37.156v-37.012h37.156zM2871.741 168.612h-37.156v-37.012h37.156zM2079.073 695.004h-37.156v-37.012h37.156zM3268.076 695.004h-37.156v-37.012h37.156zM1682.744 695.004h-37.156v-37.012h37.156zM3268.076 168.612h-37.156v-37.012h37.156zM2475.407 695.004h-37.156v-37.012h37.156zM890.076 695.004h-37.156v-37.012h37.156zM2475.407 168.612h-37.156v-37.012h37.156zM3069.906 826.604h-37.156v-37.012h37.156zM3069.906 300.211h-37.156v-37.012h37.156zM2277.243 826.604h-37.156v-37.012h37.156zM3466.24 826.604h-37.156v-37.012h37.156zM1880.909 826.604h-37.156v-37.012h37.156zM3466.24 300.211h-37.156v-37.012h37.156zM2673.577 826.604h-37.156v-37.012h37.156zM3069.906 563.405h-37.156v-37.012h37.156zM3069.906 37.012h-37.156v-37.012h37.156zM2277.243 563.405h-37.156v-37.012h37.156zM3466.24 563.405h-37.156v-37.012h37.156zM1880.909 563.405h-37.156v-37.012h37.156zM3466.24 37.012h-37.156v-37.012h37.156zM2673.577 563.405h-37.156v-37.012h37.156zM2871.741 826.604h-37.156v-37.012h37.156zM2079.073 826.604h-37.156v-37.012h37.156zM3268.076 826.604h-37.156v-37.012h37.156zM1682.744 826.604h-37.156v-37.012h37.156zM3268.076 300.211h-37.156v-37.012h37.156zM2475.407 826.604h-37.156v-37.012h37.156zM890.076 826.604h-37.156v-37.012h37.156zM2871.741 563.405h-37.156v-37.012h37.156zM2871.741 37.012h-37.156v-37.012h37.156zM2079.073 563.405h-37.156v-37.012h37.156zM494.444 560.886h-37.156v-37.012h37.156zM3268.076 563.405h-37.156v-37.012h37.156zM3268.076 37.012h-37.156v-37.012h37.156zM2475.407 563.405h-37.156v-37.012h37.156zM3003.853 1024h-37.156v-37.012h37.156zM1418.522 1024h-37.156v-37.012h37.156zM3003.853 497.608h-37.156v-37.012h37.156zM2211.185 1024h-37.156v-37.012h37.156zM625.853 1024h-37.156v-37.012h37.156zM2211.185 497.608h-37.156v-37.012h37.156zM3400.187 1024h-37.156v-37.012h37.156zM1814.856 1024h-37.156v-37.012h37.156zM3400.187 497.608h-37.156v-37.012h37.156zM1814.856 497.608h-37.156v-37.012h37.156zM2607.519 1024h-37.156v-37.012h37.156zM1022.188 1024h-37.156v-37.012h37.156zM2607.519 497.608h-37.156v-37.012h37.156zM1022.188 497.608h-37.156v-37.012h37.156zM3003.853 760.801h-37.156v-37.012h37.156zM3003.853 234.409h-37.156v-37.012h37.156zM2211.185 760.801h-37.156v-37.012h37.156zM3400.187 760.801h-37.156v-37.012h37.156zM1814.856 760.801h-37.156v-37.012h37.156zM3400.187 234.409h-37.156v-37.012h37.156zM2607.519 760.801h-37.156v-37.012h37.156zM2805.683 1024h-37.156v-37.012h37.156zM1220.352 1024h-37.156v-37.012h37.156zM2805.683 497.608h-37.156v-37.012h37.156zM2013.020 1024h-37.156v-37.012h37.156zM427.484 1024h-37.156v-37.012h37.156zM2013.020 497.608h-37.156v-37.012h37.156zM427.484 499.133h-37.156v-37.012h37.156zM3202.017 1024h-37.156v-37.012h37.156zM1616.686 1024h-37.156v-37.012h37.156zM3202.017 497.608h-37.156v-37.012h37.156zM2409.354 1024h-37.156v-37.012h37.156zM824.023 1024h-37.156v-37.012h37.156zM2409.354 497.608h-37.156v-37.012h37.156zM824.023 497.608h-37.156v-37.012h37.156zM2805.683 760.801h-37.156v-37.012h37.156zM2805.683 234.409h-37.156v-37.012h37.156zM2013.020 760.801h-37.156v-37.012h37.156zM3202.017 760.801h-37.156v-37.012h37.156zM1616.686 760.801h-37.156v-37.012h37.156zM3202.017 234.409h-37.156v-37.012h37.156zM2409.354 760.801h-37.156v-37.012h37.156zM3003.853 892.401h-37.156v-37.012h37.156zM1418.522 892.401h-37.156v-37.012h37.156zM3003.853 366.008h-37.156v-37.012h37.156zM1418.522 366.008h-37.156v-37.012h37.156zM2211.185 892.401h-37.156v-37.012h37.156zM625.853 892.401h-37.156v-37.012h37.156zM2211.185 366.008h-37.156v-37.012h37.156zM3400.187 892.401h-37.156v-37.012h37.156zM1814.856 892.401h-37.156v-37.012h37.156zM3400.187 366.008h-37.156v-37.012h37.156zM2607.519 892.401h-37.156v-37.012h37.156zM1022.188 892.401h-37.156v-37.012h37.156zM3003.853 629.207h-37.156v-37.012h37.156zM3003.853 102.81h-37.156v-37.012h37.156zM2211.185 629.207h-37.156v-37.012h37.156zM625.853 629.207h-37.156v-37.012h37.156zM3400.187 629.207h-37.156v-37.012h37.156zM1814.856 629.207h-37.156v-37.012h37.156zM3400.187 102.81h-37.156v-37.012h37.156zM2607.519 629.207h-37.156v-37.012h37.156zM2805.683 892.401h-37.156v-37.012h37.156zM1220.352 892.401h-37.156v-37.012h37.156zM2805.683 366.008h-37.156v-37.012h37.156zM2013.020 892.401h-37.156v-37.012h37.156zM427.484 890.209h-37.156v-37.012h37.156zM226.621 895.355h-37.156v-37.012h37.156zM2013.020 366.008h-37.156v-37.012h37.156zM3202.017 892.401h-37.156v-37.012h37.156zM1616.686 892.401h-37.156v-37.012h37.156zM3202.017 366.008h-37.156v-37.012h37.156zM1616.686 366.008h-37.156v-37.012h37.156zM2409.354 892.401h-37.156v-37.012h37.156zM824.023 892.401h-37.156v-37.012h37.156zM2805.683 629.207h-37.156v-37.012h37.156zM2805.683 102.81h-37.156v-37.012h37.156zM2013.020 629.207h-37.156v-37.012h37.156zM427.484 627.779h-37.156v-37.012h37.156zM226.621 627.779h-37.156v-37.012h37.156zM3202.017 629.207h-37.156v-37.012h37.156zM1616.686 629.207h-37.156v-37.012h37.156zM3202.017 102.81h-37.156v-37.012h37.156zM2409.354 629.207h-37.156v-37.012h37.156zM824.023 629.207h-37.156v-37.012h37.156zM3003.853 958.203h-37.156v-37.012h37.156zM1418.522 958.203h-37.156v-37.012h37.156zM3003.853 431.805h-37.156v-37.012h37.156zM2211.185 958.203h-37.156v-37.012h37.156zM625.853 958.203h-37.156v-37.012h37.156zM2211.185 431.805h-37.156v-37.012h37.156zM3400.187 958.203h-37.156v-37.012h37.156zM1814.856 958.203h-37.156v-37.012h37.156zM3400.187 431.805h-37.156v-37.012h37.156zM1814.856 431.805h-37.156v-37.012h37.156zM2607.519 958.203h-37.156v-37.012h37.156zM1022.188 958.203h-37.156v-37.012h37.156zM2607.519 431.805h-37.156v-37.012h37.156zM1022.188 431.805h-37.156v-37.012h37.156zM3003.853 695.004h-37.156v-37.012h37.156zM3003.853 168.612h-37.156v-37.012h37.156zM2211.185 695.004h-37.156v-37.012h37.156zM3400.187 695.004h-37.156v-37.012h37.156zM1814.856 695.004h-37.156v-37.012h37.156zM3400.187 168.612h-37.156v-37.012h37.156zM2607.519 695.004h-37.156v-37.012h37.156zM2805.683 958.203h-37.156v-37.012h37.156zM1220.352 958.203h-37.156v-37.012h37.156zM2805.683 431.805h-37.156v-37.012h37.156zM2013.020 958.203h-37.156v-37.012h37.156zM2013.020 431.805h-37.156v-37.012h37.156zM427.484 432.241h-37.156v-37.012h37.156zM226.621 432.241h-37.156v-37.012h37.156zM3202.017 958.203h-37.156v-37.012h37.156zM1616.686 958.203h-37.156v-37.012h37.156zM3202.017 431.805h-37.156v-37.012h37.156zM2409.354 958.203h-37.156v-37.012h37.156zM824.023 958.203h-37.156v-37.012h37.156zM824.023 431.805h-37.156v-37.012h37.156zM2805.683 695.004h-37.156v-37.012h37.156zM2013.020 695.004h-37.156v-37.012h37.156zM3202.017 695.004h-37.156v-37.012h37.156zM1616.686 695.004h-37.156v-37.012h37.156zM3202.017 168.612h-37.156v-37.012h37.156zM2409.354 695.004h-37.156v-37.012h37.156zM824.023 695.004h-37.156v-37.012h37.156zM3003.853 826.604h-37.156v-37.012h37.156zM3003.853 300.211h-37.156v-37.012h37.156zM2211.185 826.604h-37.156v-37.012h37.156zM3400.187 826.604h-37.156v-37.012h37.156zM1814.856 826.604h-37.156v-37.012h37.156zM3400.187 300.211h-37.156v-37.012h37.156zM2607.519 826.604h-37.156v-37.012h37.156zM3003.853 563.405h-37.156v-37.012h37.156zM3003.853 37.012h-37.156v-37.012h37.156zM2211.185 563.405h-37.156v-37.012h37.156zM3400.187 563.405h-37.156v-37.012h37.156zM1814.856 563.405h-37.156v-37.012h37.156zM3400.187 37.012h-37.156v-37.012h37.156zM2607.519 563.405h-37.156v-37.012h37.156zM2607.519 37.012h-37.156v-37.012h37.156zM2805.683 826.604h-37.156v-37.012h37.156zM2013.020 826.604h-37.156v-37.012h37.156zM3202.017 826.604h-37.156v-37.012h37.156zM1616.686 826.604h-37.156v-37.012h37.156zM3202.017 300.211h-37.156v-37.012h37.156zM2409.354 826.604h-37.156v-37.012h37.156zM824.023 826.604h-37.156v-37.012h37.156zM2805.683 563.405h-37.156v-37.012h37.156zM2805.683 37.012h-37.156v-37.012h37.156zM2013.020 563.405h-37.156v-37.012h37.156zM427.484 560.886h-37.156v-37.012h37.156zM3202.017 563.405h-37.156v-37.012h37.156zM3202.017 37.012h-37.156v-37.012h37.156zM2409.354 563.405h-37.156v-37.012h37.156zM2937.795 1024h-37.156v-37.012h37.156zM1352.463 1024h-37.156v-37.012h37.156zM2937.795 497.608h-37.156v-37.012h37.156zM2145.132 1024h-37.156v-37.012h37.156zM559.8 1024h-37.156v-37.012h37.156zM2145.132 497.608h-37.156v-37.012h37.156zM3334.129 1024h-37.156v-37.012h37.156zM1748.797 1024h-37.156v-37.012h37.156zM3334.129 497.608h-37.156v-37.012h37.156zM1748.797 497.608h-37.156v-37.012h37.156zM2541.466 1024h-37.156v-37.012h37.156zM956.134 1024h-37.156v-37.012h37.156zM2541.466 497.608h-37.156v-37.012h37.156zM956.134 497.608h-37.156v-37.012h37.156zM2937.795 760.801h-37.156v-37.012h37.156zM2937.795 234.409h-37.156v-37.012h37.156zM2145.132 760.801h-37.156v-37.012h37.156zM3334.129 760.801h-37.156v-37.012h37.156zM1748.797 760.801h-37.156v-37.012h37.156zM3334.129 234.409h-37.156v-37.012h37.156zM2541.466 760.801h-37.156v-37.012h37.156zM956.134 760.801h-37.156v-37.012h37.156zM2541.466 234.409h-37.156v-37.012h37.156zM2739.63 1024h-37.156v-37.012h37.156zM1154.299 1024h-37.156v-37.012h37.156zM2739.63 497.608h-37.156v-37.012h37.156zM1946.962 1024h-37.156v-37.012h37.156zM360.53 1024h-37.156v-37.012h37.156zM164.813 1024h-37.156v-37.012h37.156zM103.009 1024h-37.156v-37.012h37.156zM1946.962 497.608h-37.156v-37.012h37.156zM3135.964 1024h-37.156v-37.012h37.156zM1550.633 1024h-37.156v-37.012h37.156zM3135.964 497.608h-37.156v-37.012h37.156zM2343.296 1024h-37.156v-37.012h37.156zM757.965 1024h-37.156v-37.012h37.156zM2343.296 497.608h-37.156v-37.012h37.156zM2739.63 760.801h-37.156v-37.012h37.156zM2739.63 234.409h-37.156v-37.012h37.156zM1946.962 760.801h-37.156v-37.012h37.156zM3135.964 760.801h-37.156v-37.012h37.156zM1550.633 760.801h-37.156v-37.012h37.156zM3135.964 234.409h-37.156v-37.012h37.156zM2343.296 760.801h-37.156v-37.012h37.156zM2937.795 892.401h-37.156v-37.012h37.156zM1352.463 892.401h-37.156v-37.012h37.156zM2937.795 366.008h-37.156v-37.012h37.156zM2145.132 892.401h-37.156v-37.012h37.156zM559.8 892.401h-37.156v-37.012h37.156zM2145.132 366.008h-37.156v-37.012h37.156zM3334.129 892.401h-37.156v-37.012h37.156zM1748.797 892.401h-37.156v-37.012h37.156zM3334.129 366.008h-37.156v-37.012h37.156zM1748.797 366.008h-37.156v-37.012h37.156zM2541.466 892.401h-37.156v-37.012h37.156zM956.134 892.401h-37.156v-37.012h37.156zM2937.795 629.207h-37.156v-37.012h37.156zM2937.795 102.81h-37.156v-37.012h37.156zM2145.132 629.207h-37.156v-37.012h37.156zM559.8 629.207h-37.156v-37.012h37.156zM3334.129 629.207h-37.156v-37.012h37.156zM1748.797 629.207h-37.156v-37.012h37.156zM3334.129 102.81h-37.156v-37.012h37.156zM2541.466 629.207h-37.156v-37.012h37.156zM956.134 629.207h-37.156v-37.012h37.156zM2739.63 892.401h-37.156v-37.012h37.156zM2739.63 366.008h-37.156v-37.012h37.156zM1946.962 892.401h-37.156v-37.012h37.156zM360.53 890.209h-37.156v-37.012h37.156zM164.813 895.355h-37.156v-37.012h37.156zM3135.964 892.401h-37.156v-37.012h37.156zM1550.633 892.401h-37.156v-37.012h37.156zM3135.964 366.008h-37.156v-37.012h37.156zM2343.296 892.401h-37.156v-37.012h37.156zM757.965 892.401h-37.156v-37.012h37.156zM2739.63 629.207h-37.156v-37.012h37.156zM1946.962 629.207h-37.156v-37.012h37.156zM164.813 627.779h-37.156v-37.012h37.156zM103.009 627.779h-37.156v-37.012h37.156zM41.206 627.779h-37.156v-37.012h37.156zM3135.964 629.207h-37.156v-37.012h37.156zM1550.633 629.207h-37.156v-37.012h37.156zM3135.964 102.81h-37.156v-37.012h37.156zM2343.296 629.207h-37.156v-37.012h37.156zM757.965 629.207h-37.156v-37.012h37.156zM2937.795 958.203h-37.156v-37.012h37.156zM1352.463 958.203h-37.156v-37.012h37.156zM2937.795 431.805h-37.156v-37.012h37.156zM2145.132 958.203h-37.156v-37.012h37.156zM559.8 958.203h-37.156v-37.012h37.156zM2145.132 431.805h-37.156v-37.012h37.156zM3334.129 958.203h-37.156v-37.012h37.156zM1748.797 958.203h-37.156v-37.012h37.156zM3334.129 431.805h-37.156v-37.012h37.156zM1748.797 431.805h-37.156v-37.012h37.156zM2541.466 958.203h-37.156v-37.012h37.156zM956.134 958.203h-37.156v-37.012h37.156zM2541.466 431.805h-37.156v-37.012h37.156zM956.134 431.805h-37.156v-37.012h37.156zM2937.795 695.004h-37.156v-37.012h37.156zM2937.795 168.612h-37.156v-37.012h37.156zM2145.132 695.004h-37.156v-37.012h37.156zM3334.129 695.004h-37.156v-37.012h37.156zM1748.797 695.004h-37.156v-37.012h37.156zM3334.129 168.612h-37.156v-37.012h37.156zM2541.466 695.004h-37.156v-37.012h37.156zM956.134 695.004h-37.156v-37.012h37.156zM2739.63 958.203h-37.156v-37.012h37.156zM2739.63 431.805h-37.156v-37.012h37.156zM1946.962 958.203h-37.156v-37.012h37.156zM164.813 957.107h-37.156v-37.012h37.156zM103.009 957.107h-37.156v-37.012h37.156zM1946.962 431.805h-37.156v-37.012h37.156zM360.53 432.241h-37.156v-37.012h37.156zM164.813 432.241h-37.156v-37.012h37.156zM3135.964 958.203h-37.156v-37.012h37.156zM1550.633 958.203h-37.156v-37.012h37.156zM3135.964 431.805h-37.156v-37.012h37.156zM2343.296 958.203h-37.156v-37.012h37.156zM757.965 958.203h-37.156v-37.012h37.156zM2739.63 695.004h-37.156v-37.012h37.156zM1946.962 695.004h-37.156v-37.012h37.156zM3135.964 695.004h-37.156v-37.012h37.156zM3135.964 168.612h-37.156v-37.012h37.156zM2343.296 695.004h-37.156v-37.012h37.156zM757.965 695.004h-37.156v-37.012h37.156zM2937.795 826.604h-37.156v-37.012h37.156zM2937.795 300.211h-37.156v-37.012h37.156zM2145.132 826.604h-37.156v-37.012h37.156zM3334.129 826.604h-37.156v-37.012h37.156zM1748.797 826.604h-37.156v-37.012h37.156zM3334.129 300.211h-37.156v-37.012h37.156zM2541.466 826.604h-37.156v-37.012h37.156zM956.134 826.604h-37.156v-37.012h37.156zM2937.795 563.405h-37.156v-37.012h37.156zM2937.795 37.012h-37.156v-37.012h37.156zM2145.132 563.405h-37.156v-37.012h37.156zM3334.129 563.405h-37.156v-37.012h37.156zM1748.797 563.405h-37.156v-37.012h37.156zM3334.129 37.012h-37.156v-37.012h37.156zM2541.466 563.405h-37.156v-37.012h37.156zM2739.63 826.604h-37.156v-37.012h37.156zM1946.962 826.604h-37.156v-37.012h37.156zM3135.964 826.604h-37.156v-37.012h37.156zM3135.964 300.211h-37.156v-37.012h37.156zM2343.296 826.604h-37.156v-37.012h37.156zM757.965 826.604h-37.156v-37.012h37.156zM2739.63 563.405h-37.156v-37.012h37.156zM2739.63 37.012h-37.156v-37.012h37.156zM1946.962 563.405h-37.156v-37.012h37.156zM164.813 566.031h-37.156v-37.012h37.156zM3135.964 563.405h-37.156v-37.012h37.156zM3135.964 37.012h-37.156v-37.012h37.156zM2343.296 563.405h-37.156v-37.012h37.156z"></path>
</svg>
