<!-- Generated by IcoMoon.io -->
<svg version="1.1" xmlns="http://www.w3.org/2000/svg" width="3467" height="1024" viewBox="0 0 3467 1024">
<title></title>
<g id="icomoon-ignore">
</g>
<path fill="#ffffff" d="M395.228 0h35.93v35.93h-35.93v-35.93zM1985.123 0h35.93v35.93h-35.93v-35.93zM395.228 529.965h35.93v35.93h-35.93v-35.93zM1190.175 0h35.93v35.93h-35.93v-35.93zM2780.070 0h35.93v35.93h-35.93v-35.93zM1190.175 529.965h35.93v35.93h-35.93v-35.93zM0 0h35.93v35.93h-35.93v-35.93zM1589.895 0h35.93v35.93h-35.93v-35.93zM0 529.965h35.93v35.93h-35.93v-35.93zM1589.895 529.965h35.93v35.93h-35.93v-35.93zM794.947 0h35.93v35.93h-35.93v-35.93zM2384.842 0h35.93v35.93h-35.93v-35.93zM794.947 529.965h35.93v35.93h-35.93v-35.93zM395.228 260.491h35.93v35.93h-35.93v-35.93zM1985.123 260.491h35.93v35.93h-35.93v-35.93zM395.228 790.456h35.93v35.93h-35.93v-35.93zM1190.175 260.491h35.93v35.93h-35.93v-35.93zM0 260.491h35.93v35.93h-35.93v-35.93zM1589.895 260.491h35.93v35.93h-35.93v-35.93zM0 790.456h35.93v35.93h-35.93v-35.93zM1589.895 790.456h35.93v35.93h-35.93v-35.93zM794.947 260.491h35.93v35.93h-35.93v-35.93zM597.333 0h35.93v35.93h-35.93v-35.93zM2182.737 0h35.93v35.93h-35.93v-35.93zM597.333 529.965h35.93v35.93h-35.93v-35.93zM1392.281 0h35.93v35.93h-35.93v-35.93zM2973.193 0h35.93v35.93h-35.93v-35.93zM1392.281 529.965h35.93v35.93h-35.93v-35.93zM2973.193 525.474h35.93v35.93h-35.93v-35.93zM197.614 0h35.93v35.93h-35.93v-35.93zM1787.509 0h35.93v35.93h-35.93v-35.93zM197.614 529.965h35.93v35.93h-35.93v-35.93zM992.561 0h35.93v35.93h-35.93v-35.93zM2582.456 0h35.93v35.93h-35.93v-35.93zM992.561 529.965h35.93v35.93h-35.93v-35.93zM2582.456 529.965h35.93v35.93h-35.93v-35.93zM597.333 260.491h35.93v35.93h-35.93v-35.93zM597.333 790.456h35.93v35.93h-35.93v-35.93zM2182.737 790.456h35.93v35.93h-35.93v-35.93zM1392.281 260.491h35.93v35.93h-35.93v-35.93zM1392.281 790.456h35.93v35.93h-35.93v-35.93zM2977.684 790.456h35.93v35.93h-35.93v-35.93zM197.614 260.491h35.93v35.93h-35.93v-35.93zM1787.509 260.491h35.93v35.93h-35.93v-35.93zM197.614 790.456h35.93v35.93h-35.93v-35.93zM1787.509 790.456h35.93v35.93h-35.93v-35.93zM992.561 260.491h35.93v35.93h-35.93v-35.93zM2582.456 260.491h35.93v35.93h-35.93v-35.93zM992.561 790.456h35.93v35.93h-35.93v-35.93zM395.228 130.246h35.93v35.93h-35.93v-35.93zM1985.123 130.246h35.93v35.93h-35.93v-35.93zM395.228 660.211h35.93v35.93h-35.93v-35.93zM1985.123 660.211h35.93v35.93h-35.93v-35.93zM1190.175 130.246h35.93v35.93h-35.93v-35.93zM2780.070 130.246h35.93v35.93h-35.93v-35.93zM1190.175 660.211h35.93v35.93h-35.93v-35.93zM0 130.246h35.93v35.93h-35.93v-35.93zM1589.895 130.246h35.93v35.93h-35.93v-35.93zM0 660.211h35.93v35.93h-35.93v-35.93zM1589.895 660.211h35.93v35.93h-35.93v-35.93zM794.947 130.246h35.93v35.93h-35.93v-35.93zM2384.842 130.246h35.93v35.93h-35.93v-35.93zM794.947 660.211h35.93v35.93h-35.93v-35.93zM395.228 395.228h35.93v35.93h-35.93v-35.93zM1985.123 395.228h35.93v35.93h-35.93v-35.93zM395.228 920.702h35.93v35.93h-35.93v-35.93zM1190.175 395.228h35.93v35.93h-35.93v-35.93zM2780.070 395.228h35.93v35.93h-35.93v-35.93zM0 395.228h35.93v35.93h-35.93v-35.93zM1589.895 395.228h35.93v35.93h-35.93v-35.93zM0 920.702h35.93v35.93h-35.93v-35.93zM794.947 395.228h35.93v35.93h-35.93v-35.93zM597.333 130.246h35.93v35.93h-35.93v-35.93zM2182.737 130.246h35.93v35.93h-35.93v-35.93zM597.333 660.211h35.93v35.93h-35.93v-35.93zM1392.281 130.246h35.93v35.93h-35.93v-35.93zM2973.193 134.737h35.93v35.93h-35.93v-35.93zM1392.281 660.211h35.93v35.93h-35.93v-35.93zM197.614 130.246h35.93v35.93h-35.93v-35.93zM1787.509 130.246h35.93v35.93h-35.93v-35.93zM197.614 660.211h35.93v35.93h-35.93v-35.93zM1787.509 660.211h35.93v35.93h-35.93v-35.93zM992.561 130.246h35.93v35.93h-35.93v-35.93zM2582.456 130.246h35.93v35.93h-35.93v-35.93zM597.333 395.228h35.93v35.93h-35.93v-35.93zM597.333 920.702h35.93v35.93h-35.93v-35.93zM1392.281 395.228h35.93v35.93h-35.93v-35.93zM2973.193 395.228h35.93v35.93h-35.93v-35.93zM197.614 395.228h35.93v35.93h-35.93v-35.93zM1787.509 395.228h35.93v35.93h-35.93v-35.93zM197.614 920.702h35.93v35.93h-35.93v-35.93zM992.561 395.228h35.93v35.93h-35.93v-35.93zM2582.456 395.228h35.93v35.93h-35.93v-35.93zM395.228 67.368h35.93v35.93h-35.93v-35.93zM1985.123 67.368h35.93v35.93h-35.93v-35.93zM395.228 592.842h35.93v35.93h-35.93v-35.93zM1190.175 67.368h35.93v35.93h-35.93v-35.93zM2780.070 67.368h35.93v35.93h-35.93v-35.93zM1190.175 592.842h35.93v35.93h-35.93v-35.93zM0 67.368h35.93v35.93h-35.93v-35.93zM1589.895 67.368h35.93v35.93h-35.93v-35.93zM0 592.842h35.93v35.93h-35.93v-35.93zM1589.895 592.842h35.93v35.93h-35.93v-35.93zM794.947 67.368h35.93v35.93h-35.93v-35.93zM2384.842 67.368h35.93v35.93h-35.93v-35.93zM794.947 592.842h35.93v35.93h-35.93v-35.93zM395.228 327.86h35.93v35.93h-35.93v-35.93zM395.228 857.825h35.93v35.93h-35.93v-35.93zM1985.123 857.825h35.93v35.93h-35.93v-35.93zM1190.175 327.86h35.93v35.93h-35.93v-35.93zM0 327.86h35.93v35.93h-35.93v-35.93zM1589.895 327.86h35.93v35.93h-35.93v-35.93zM0 857.825h35.93v35.93h-35.93v-35.93zM794.947 327.86h35.93v35.93h-35.93v-35.93zM597.333 67.368h35.93v35.93h-35.93v-35.93zM2182.737 67.368h35.93v35.93h-35.93v-35.93zM597.333 592.842h35.93v35.93h-35.93v-35.93zM1392.281 67.368h35.93v35.93h-35.93v-35.93zM2973.193 67.368h35.93v35.93h-35.93v-35.93zM1392.281 592.842h35.93v35.93h-35.93v-35.93zM2973.193 592.842h35.93v35.93h-35.93v-35.93zM3175.298 592.842h35.93v35.93h-35.93v-35.93zM197.614 67.368h35.93v35.93h-35.93v-35.93zM1787.509 67.368h35.93v35.93h-35.93v-35.93zM197.614 592.842h35.93v35.93h-35.93v-35.93zM992.561 67.368h35.93v35.93h-35.93v-35.93zM2582.456 67.368h35.93v35.93h-35.93v-35.93zM2582.456 592.842h35.93v35.93h-35.93v-35.93zM597.333 327.86h35.93v35.93h-35.93v-35.93zM597.333 857.825h35.93v35.93h-35.93v-35.93zM2182.737 857.825h35.93v35.93h-35.93v-35.93zM1392.281 327.86h35.93v35.93h-35.93v-35.93zM1392.281 857.825h35.93v35.93h-35.93v-35.93zM197.614 327.86h35.93v35.93h-35.93v-35.93zM1787.509 327.86h35.93v35.93h-35.93v-35.93zM197.614 857.825h35.93v35.93h-35.93v-35.93zM1787.509 857.825h35.93v35.93h-35.93v-35.93zM992.561 327.86h35.93v35.93h-35.93v-35.93zM2582.456 327.86h35.93v35.93h-35.93v-35.93zM992.561 857.825h35.93v35.93h-35.93v-35.93zM395.228 197.614h35.93v35.93h-35.93v-35.93zM395.228 723.088h35.93v35.93h-35.93v-35.93zM1985.123 723.088h35.93v35.93h-35.93v-35.93zM1190.175 197.614h35.93v35.93h-35.93v-35.93zM0 197.614h35.93v35.93h-35.93v-35.93zM1589.895 197.614h35.93v35.93h-35.93v-35.93zM0 723.088h35.93v35.93h-35.93v-35.93zM1589.895 723.088h35.93v35.93h-35.93v-35.93zM794.947 197.614h35.93v35.93h-35.93v-35.93zM395.228 462.596h35.93v35.93h-35.93v-35.93zM395.228 988.070h35.93v35.93h-35.93v-35.93zM1190.175 462.596h35.93v35.93h-35.93v-35.93zM0 462.596h35.93v35.93h-35.93v-35.93zM1589.895 462.596h35.93v35.93h-35.93v-35.93zM0 988.070h35.93v35.93h-35.93v-35.93zM794.947 462.596h35.93v35.93h-35.93v-35.93zM597.333 197.614h35.93v35.93h-35.93v-35.93zM2182.737 723.088h35.93v35.93h-35.93v-35.93zM1392.281 197.614h35.93v35.93h-35.93v-35.93zM1392.281 723.088h35.93v35.93h-35.93v-35.93zM197.614 197.614h35.93v35.93h-35.93v-35.93zM1787.509 197.614h35.93v35.93h-35.93v-35.93zM197.614 723.088h35.93v35.93h-35.93v-35.93zM1787.509 723.088h35.93v35.93h-35.93v-35.93zM992.561 197.614h35.93v35.93h-35.93v-35.93zM2582.456 197.614h35.93v35.93h-35.93v-35.93zM597.333 462.596h35.93v35.93h-35.93v-35.93zM597.333 988.070h35.93v35.93h-35.93v-35.93zM1392.281 462.596h35.93v35.93h-35.93v-35.93zM2973.193 462.596h35.93v35.93h-35.93v-35.93zM197.614 462.596h35.93v35.93h-35.93v-35.93zM197.614 988.070h35.93v35.93h-35.93v-35.93zM992.561 462.596h35.93v35.93h-35.93v-35.93zM462.596 0h35.93v35.93h-35.93v-35.93zM2048 0h35.93v35.93h-35.93v-35.93zM462.596 529.965h35.93v35.93h-35.93v-35.93zM1253.053 0h35.93v35.93h-35.93v-35.93zM2842.947 0h35.93v35.93h-35.93v-35.93zM1253.053 529.965h35.93v35.93h-35.93v-35.93zM67.368 0h35.93v35.93h-35.93v-35.93zM1652.772 0h35.93v35.93h-35.93v-35.93zM67.368 529.965h35.93v35.93h-35.93v-35.93zM1652.772 529.965h35.93v35.93h-35.93v-35.93zM862.316 0h35.93v35.93h-35.93v-35.93zM2447.719 0h35.93v35.93h-35.93v-35.93zM862.316 529.965h35.93v35.93h-35.93v-35.93zM2447.719 529.965h35.93v35.93h-35.93v-35.93zM462.596 260.491h35.93v35.93h-35.93v-35.93zM462.596 790.456h35.93v35.93h-35.93v-35.93zM1253.053 260.491h35.93v35.93h-35.93v-35.93zM67.368 260.491h35.93v35.93h-35.93v-35.93zM1652.772 260.491h35.93v35.93h-35.93v-35.93zM67.368 790.456h35.93v35.93h-35.93v-35.93zM862.316 260.491h35.93v35.93h-35.93v-35.93zM664.702 0h35.93v35.93h-35.93v-35.93zM2250.105 0h35.93v35.93h-35.93v-35.93zM664.702 529.965h35.93v35.93h-35.93v-35.93zM1455.158 0h35.93v35.93h-35.93v-35.93zM3040.561 0h35.93v35.93h-35.93v-35.93zM1455.158 529.965h35.93v35.93h-35.93v-35.93zM3040.561 525.474h35.93v35.93h-35.93v-35.93zM264.982 0h35.93v35.93h-35.93v-35.93zM1850.386 0h35.93v35.93h-35.93v-35.93zM264.982 529.965h35.93v35.93h-35.93v-35.93zM1055.439 0h35.93v35.93h-35.93v-35.93zM2645.333 0h35.93v35.93h-35.93v-35.93zM1055.439 529.965h35.93v35.93h-35.93v-35.93zM2645.333 529.965h35.93v35.93h-35.93v-35.93zM664.702 260.491h35.93v35.93h-35.93v-35.93zM664.702 790.456h35.93v35.93h-35.93v-35.93zM1455.158 260.491h35.93v35.93h-35.93v-35.93zM1455.158 790.456h35.93v35.93h-35.93v-35.93zM3040.561 790.456h35.93v35.93h-35.93v-35.93zM264.982 260.491h35.93v35.93h-35.93v-35.93zM1850.386 260.491h35.93v35.93h-35.93v-35.93zM264.982 790.456h35.93v35.93h-35.93v-35.93zM1850.386 790.456h35.93v35.93h-35.93v-35.93zM1055.439 260.491h35.93v35.93h-35.93v-35.93zM462.596 130.246h35.93v35.93h-35.93v-35.93zM2048 130.246h35.93v35.93h-35.93v-35.93zM462.596 660.211h35.93v35.93h-35.93v-35.93zM2048 660.211h35.93v35.93h-35.93v-35.93zM1253.053 130.246h35.93v35.93h-35.93v-35.93zM2842.947 130.246h35.93v35.93h-35.93v-35.93zM1253.053 660.211h35.93v35.93h-35.93v-35.93zM67.368 130.246h35.93v35.93h-35.93v-35.93zM1652.772 130.246h35.93v35.93h-35.93v-35.93zM67.368 660.211h35.93v35.93h-35.93v-35.93zM1652.772 660.211h35.93v35.93h-35.93v-35.93zM862.316 130.246h35.93v35.93h-35.93v-35.93zM2447.719 130.246h35.93v35.93h-35.93v-35.93zM462.596 395.228h35.93v35.93h-35.93v-35.93zM462.596 920.702h35.93v35.93h-35.93v-35.93zM1253.053 395.228h35.93v35.93h-35.93v-35.93zM2842.947 395.228h35.93v35.93h-35.93v-35.93zM67.368 395.228h35.93v35.93h-35.93v-35.93zM1652.772 395.228h35.93v35.93h-35.93v-35.93zM67.368 920.702h35.93v35.93h-35.93v-35.93zM862.316 395.228h35.93v35.93h-35.93v-35.93zM664.702 130.246h35.93v35.93h-35.93v-35.93zM2250.105 130.246h35.93v35.93h-35.93v-35.93zM664.702 660.211h35.93v35.93h-35.93v-35.93zM1455.158 130.246h35.93v35.93h-35.93v-35.93zM3040.561 134.737h35.93v35.93h-35.93v-35.93zM3242.667 125.754h35.93v35.93h-35.93v-35.93zM1455.158 660.211h35.93v35.93h-35.93v-35.93zM264.982 130.246h35.93v35.93h-35.93v-35.93zM1850.386 130.246h35.93v35.93h-35.93v-35.93zM264.982 660.211h35.93v35.93h-35.93v-35.93zM1850.386 660.211h35.93v35.93h-35.93v-35.93zM1055.439 130.246h35.93v35.93h-35.93v-35.93zM2645.333 130.246h35.93v35.93h-35.93v-35.93zM664.702 395.228h35.93v35.93h-35.93v-35.93zM664.702 920.702h35.93v35.93h-35.93v-35.93zM1455.158 395.228h35.93v35.93h-35.93v-35.93zM3040.561 395.228h35.93v35.93h-35.93v-35.93zM3242.667 395.228h35.93v35.93h-35.93v-35.93zM264.982 395.228h35.93v35.93h-35.93v-35.93zM1850.386 395.228h35.93v35.93h-35.93v-35.93zM264.982 920.702h35.93v35.93h-35.93v-35.93zM1055.439 395.228h35.93v35.93h-35.93v-35.93zM2645.333 395.228h35.93v35.93h-35.93v-35.93zM462.596 67.368h35.93v35.93h-35.93v-35.93zM2048 67.368h35.93v35.93h-35.93v-35.93zM462.596 592.842h35.93v35.93h-35.93v-35.93zM1253.053 67.368h35.93v35.93h-35.93v-35.93zM2842.947 67.368h35.93v35.93h-35.93v-35.93zM1253.053 592.842h35.93v35.93h-35.93v-35.93zM67.368 67.368h35.93v35.93h-35.93v-35.93zM1652.772 67.368h35.93v35.93h-35.93v-35.93zM67.368 592.842h35.93v35.93h-35.93v-35.93zM1652.772 592.842h35.93v35.93h-35.93v-35.93zM862.316 67.368h35.93v35.93h-35.93v-35.93zM2447.719 67.368h35.93v35.93h-35.93v-35.93zM862.316 592.842h35.93v35.93h-35.93v-35.93zM2447.719 592.842h35.93v35.93h-35.93v-35.93zM462.596 327.86h35.93v35.93h-35.93v-35.93zM462.596 857.825h35.93v35.93h-35.93v-35.93zM2048 857.825h35.93v35.93h-35.93v-35.93zM1253.053 327.86h35.93v35.93h-35.93v-35.93zM67.368 327.86h35.93v35.93h-35.93v-35.93zM1652.772 327.86h35.93v35.93h-35.93v-35.93zM67.368 857.825h35.93v35.93h-35.93v-35.93zM862.316 327.86h35.93v35.93h-35.93v-35.93zM2447.719 857.825h35.93v35.93h-35.93v-35.93zM664.702 67.368h35.93v35.93h-35.93v-35.93zM2250.105 67.368h35.93v35.93h-35.93v-35.93zM664.702 592.842h35.93v35.93h-35.93v-35.93zM1455.158 67.368h35.93v35.93h-35.93v-35.93zM1455.158 592.842h35.93v35.93h-35.93v-35.93zM3040.561 592.842h35.93v35.93h-35.93v-35.93zM3242.667 592.842h35.93v35.93h-35.93v-35.93zM264.982 67.368h35.93v35.93h-35.93v-35.93zM1850.386 67.368h35.93v35.93h-35.93v-35.93zM264.982 592.842h35.93v35.93h-35.93v-35.93zM1055.439 67.368h35.93v35.93h-35.93v-35.93zM2645.333 67.368h35.93v35.93h-35.93v-35.93zM2645.333 592.842h35.93v35.93h-35.93v-35.93zM664.702 327.86h35.93v35.93h-35.93v-35.93zM1455.158 327.86h35.93v35.93h-35.93v-35.93zM1455.158 857.825h35.93v35.93h-35.93v-35.93zM264.982 327.86h35.93v35.93h-35.93v-35.93zM1850.386 327.86h35.93v35.93h-35.93v-35.93zM264.982 857.825h35.93v35.93h-35.93v-35.93zM1850.386 857.825h35.93v35.93h-35.93v-35.93zM1055.439 327.86h35.93v35.93h-35.93v-35.93zM2645.333 327.86h35.93v35.93h-35.93v-35.93zM462.596 197.614h35.93v35.93h-35.93v-35.93zM462.596 723.088h35.93v35.93h-35.93v-35.93zM2048 723.088h35.93v35.93h-35.93v-35.93zM1253.053 197.614h35.93v35.93h-35.93v-35.93zM2842.947 723.088h35.93v35.93h-35.93v-35.93zM67.368 197.614h35.93v35.93h-35.93v-35.93zM1652.772 197.614h35.93v35.93h-35.93v-35.93zM67.368 723.088h35.93v35.93h-35.93v-35.93zM1652.772 723.088h35.93v35.93h-35.93v-35.93zM862.316 197.614h35.93v35.93h-35.93v-35.93zM462.596 462.596h35.93v35.93h-35.93v-35.93zM462.596 988.070h35.93v35.93h-35.93v-35.93zM1253.053 462.596h35.93v35.93h-35.93v-35.93zM67.368 462.596h35.93v35.93h-35.93v-35.93zM1652.772 462.596h35.93v35.93h-35.93v-35.93zM67.368 988.070h35.93v35.93h-35.93v-35.93zM862.316 462.596h35.93v35.93h-35.93v-35.93zM862.316 988.070h35.93v35.93h-35.93v-35.93zM664.702 197.614h35.93v35.93h-35.93v-35.93zM2250.105 723.088h35.93v35.93h-35.93v-35.93zM1455.158 197.614h35.93v35.93h-35.93v-35.93zM1455.158 723.088h35.93v35.93h-35.93v-35.93zM264.982 197.614h35.93v35.93h-35.93v-35.93zM1850.386 197.614h35.93v35.93h-35.93v-35.93zM264.982 723.088h35.93v35.93h-35.93v-35.93zM1850.386 723.088h35.93v35.93h-35.93v-35.93zM1055.439 197.614h35.93v35.93h-35.93v-35.93zM2645.333 197.614h35.93v35.93h-35.93v-35.93zM664.702 462.596h35.93v35.93h-35.93v-35.93zM664.702 988.070h35.93v35.93h-35.93v-35.93zM1455.158 462.596h35.93v35.93h-35.93v-35.93zM3040.561 462.596h35.93v35.93h-35.93v-35.93zM264.982 462.596h35.93v35.93h-35.93v-35.93zM264.982 988.070h35.93v35.93h-35.93v-35.93zM1055.439 462.596h35.93v35.93h-35.93v-35.93zM529.965 0h35.93v35.93h-35.93v-35.93zM2115.368 0h35.93v35.93h-35.93v-35.93zM529.965 529.965h35.93v35.93h-35.93v-35.93zM1320.421 0h35.93v35.93h-35.93v-35.93zM2910.316 0h35.93v35.93h-35.93v-35.93zM1320.421 529.965h35.93v35.93h-35.93v-35.93zM130.246 0h35.93v35.93h-35.93v-35.93zM1720.14 0h35.93v35.93h-35.93v-35.93zM130.246 529.965h35.93v35.93h-35.93v-35.93zM1720.14 529.965h35.93v35.93h-35.93v-35.93zM925.193 0h35.93v35.93h-35.93v-35.93zM2515.088 0h35.93v35.93h-35.93v-35.93zM925.193 529.965h35.93v35.93h-35.93v-35.93zM2515.088 529.965h35.93v35.93h-35.93v-35.93zM529.965 260.491h35.93v35.93h-35.93v-35.93zM529.965 790.456h35.93v35.93h-35.93v-35.93zM2115.368 790.456h35.93v35.93h-35.93v-35.93zM1320.421 260.491h35.93v35.93h-35.93v-35.93zM1320.421 790.456h35.93v35.93h-35.93v-35.93zM2910.316 790.456h35.93v35.93h-35.93v-35.93zM130.246 260.491h35.93v35.93h-35.93v-35.93zM1720.14 260.491h35.93v35.93h-35.93v-35.93zM130.246 790.456h35.93v35.93h-35.93v-35.93zM925.193 260.491h35.93v35.93h-35.93v-35.93zM2515.088 260.491h35.93v35.93h-35.93v-35.93zM925.193 790.456h35.93v35.93h-35.93v-35.93zM727.579 0h35.93v35.93h-35.93v-35.93zM2317.474 0h35.93v35.93h-35.93v-35.93zM727.579 529.965h35.93v35.93h-35.93v-35.93zM1522.526 0h35.93v35.93h-35.93v-35.93zM3107.93 0h35.93v35.93h-35.93v-35.93zM3305.544 0h35.93v35.93h-35.93v-35.93zM3368.421 0h35.93v35.93h-35.93v-35.93zM1522.526 529.965h35.93v35.93h-35.93v-35.93zM327.86 0h35.93v35.93h-35.93v-35.93zM1917.754 0h35.93v35.93h-35.93v-35.93zM327.86 529.965h35.93v35.93h-35.93v-35.93zM1122.807 0h35.93v35.93h-35.93v-35.93zM2712.702 0h35.93v35.93h-35.93v-35.93zM1122.807 529.965h35.93v35.93h-35.93v-35.93zM727.579 260.491h35.93v35.93h-35.93v-35.93zM727.579 790.456h35.93v35.93h-35.93v-35.93zM2317.474 790.456h35.93v35.93h-35.93v-35.93zM1522.526 260.491h35.93v35.93h-35.93v-35.93zM3107.93 790.456h35.93v35.93h-35.93v-35.93zM327.86 260.491h35.93v35.93h-35.93v-35.93zM1917.754 260.491h35.93v35.93h-35.93v-35.93zM327.86 790.456h35.93v35.93h-35.93v-35.93zM1917.754 790.456h35.93v35.93h-35.93v-35.93zM1122.807 260.491h35.93v35.93h-35.93v-35.93zM529.965 130.246h35.93v35.93h-35.93v-35.93zM2115.368 130.246h35.93v35.93h-35.93v-35.93zM529.965 660.211h35.93v35.93h-35.93v-35.93zM1320.421 130.246h35.93v35.93h-35.93v-35.93zM2910.316 130.246h35.93v35.93h-35.93v-35.93zM1320.421 660.211h35.93v35.93h-35.93v-35.93zM130.246 130.246h35.93v35.93h-35.93v-35.93zM1720.14 130.246h35.93v35.93h-35.93v-35.93zM130.246 660.211h35.93v35.93h-35.93v-35.93zM1720.14 660.211h35.93v35.93h-35.93v-35.93zM925.193 130.246h35.93v35.93h-35.93v-35.93zM2515.088 130.246h35.93v35.93h-35.93v-35.93zM529.965 395.228h35.93v35.93h-35.93v-35.93zM529.965 920.702h35.93v35.93h-35.93v-35.93zM1320.421 395.228h35.93v35.93h-35.93v-35.93zM2910.316 395.228h35.93v35.93h-35.93v-35.93zM130.246 395.228h35.93v35.93h-35.93v-35.93zM1720.14 395.228h35.93v35.93h-35.93v-35.93zM130.246 920.702h35.93v35.93h-35.93v-35.93zM925.193 395.228h35.93v35.93h-35.93v-35.93zM2515.088 395.228h35.93v35.93h-35.93v-35.93zM727.579 130.246h35.93v35.93h-35.93v-35.93zM727.579 660.211h35.93v35.93h-35.93v-35.93zM1522.526 130.246h35.93v35.93h-35.93v-35.93zM3107.93 134.737h35.93v35.93h-35.93v-35.93zM3305.544 125.754h35.93v35.93h-35.93v-35.93zM1522.526 660.211h35.93v35.93h-35.93v-35.93zM327.86 130.246h35.93v35.93h-35.93v-35.93zM1917.754 130.246h35.93v35.93h-35.93v-35.93zM327.86 660.211h35.93v35.93h-35.93v-35.93zM1917.754 660.211h35.93v35.93h-35.93v-35.93zM1122.807 130.246h35.93v35.93h-35.93v-35.93zM2712.702 130.246h35.93v35.93h-35.93v-35.93zM727.579 395.228h35.93v35.93h-35.93v-35.93zM1522.526 395.228h35.93v35.93h-35.93v-35.93zM3305.544 395.228h35.93v35.93h-35.93v-35.93zM3368.421 395.228h35.93v35.93h-35.93v-35.93zM3431.298 395.228h35.93v35.93h-35.93v-35.93zM327.86 395.228h35.93v35.93h-35.93v-35.93zM1917.754 395.228h35.93v35.93h-35.93v-35.93zM327.86 920.702h35.93v35.93h-35.93v-35.93zM1917.754 920.702h35.93v35.93h-35.93v-35.93zM1122.807 395.228h35.93v35.93h-35.93v-35.93zM2712.702 395.228h35.93v35.93h-35.93v-35.93zM529.965 67.368h35.93v35.93h-35.93v-35.93zM2115.368 67.368h35.93v35.93h-35.93v-35.93zM529.965 592.842h35.93v35.93h-35.93v-35.93zM1320.421 67.368h35.93v35.93h-35.93v-35.93zM2910.316 67.368h35.93v35.93h-35.93v-35.93zM1320.421 592.842h35.93v35.93h-35.93v-35.93zM130.246 67.368h35.93v35.93h-35.93v-35.93zM1720.14 67.368h35.93v35.93h-35.93v-35.93zM130.246 592.842h35.93v35.93h-35.93v-35.93zM1720.14 592.842h35.93v35.93h-35.93v-35.93zM925.193 67.368h35.93v35.93h-35.93v-35.93zM2515.088 67.368h35.93v35.93h-35.93v-35.93zM925.193 592.842h35.93v35.93h-35.93v-35.93zM2515.088 592.842h35.93v35.93h-35.93v-35.93zM529.965 327.86h35.93v35.93h-35.93v-35.93zM529.965 857.825h35.93v35.93h-35.93v-35.93zM1320.421 327.86h35.93v35.93h-35.93v-35.93zM1320.421 857.825h35.93v35.93h-35.93v-35.93zM130.246 327.86h35.93v35.93h-35.93v-35.93zM1720.14 327.86h35.93v35.93h-35.93v-35.93zM130.246 857.825h35.93v35.93h-35.93v-35.93zM1720.14 857.825h35.93v35.93h-35.93v-35.93zM925.193 327.86h35.93v35.93h-35.93v-35.93zM2515.088 327.86h35.93v35.93h-35.93v-35.93zM2515.088 857.825h35.93v35.93h-35.93v-35.93zM727.579 67.368h35.93v35.93h-35.93v-35.93zM727.579 592.842h35.93v35.93h-35.93v-35.93zM1522.526 67.368h35.93v35.93h-35.93v-35.93zM3305.544 67.368h35.93v35.93h-35.93v-35.93zM3368.421 67.368h35.93v35.93h-35.93v-35.93zM1522.526 592.842h35.93v35.93h-35.93v-35.93zM3107.93 592.842h35.93v35.93h-35.93v-35.93zM3305.544 592.842h35.93v35.93h-35.93v-35.93zM327.86 67.368h35.93v35.93h-35.93v-35.93zM1917.754 67.368h35.93v35.93h-35.93v-35.93zM327.86 592.842h35.93v35.93h-35.93v-35.93zM1122.807 67.368h35.93v35.93h-35.93v-35.93zM2712.702 67.368h35.93v35.93h-35.93v-35.93zM727.579 327.86h35.93v35.93h-35.93v-35.93zM2317.474 857.825h35.93v35.93h-35.93v-35.93zM1522.526 327.86h35.93v35.93h-35.93v-35.93zM327.86 327.86h35.93v35.93h-35.93v-35.93zM327.86 857.825h35.93v35.93h-35.93v-35.93zM1917.754 857.825h35.93v35.93h-35.93v-35.93zM1122.807 327.86h35.93v35.93h-35.93v-35.93zM2712.702 327.86h35.93v35.93h-35.93v-35.93zM529.965 197.614h35.93v35.93h-35.93v-35.93zM529.965 723.088h35.93v35.93h-35.93v-35.93zM2115.368 723.088h35.93v35.93h-35.93v-35.93zM1320.421 197.614h35.93v35.93h-35.93v-35.93zM1320.421 723.088h35.93v35.93h-35.93v-35.93zM2910.316 723.088h35.93v35.93h-35.93v-35.93zM130.246 197.614h35.93v35.93h-35.93v-35.93zM1720.14 197.614h35.93v35.93h-35.93v-35.93zM130.246 723.088h35.93v35.93h-35.93v-35.93zM1720.14 723.088h35.93v35.93h-35.93v-35.93zM925.193 197.614h35.93v35.93h-35.93v-35.93zM2515.088 197.614h35.93v35.93h-35.93v-35.93zM529.965 462.596h35.93v35.93h-35.93v-35.93zM529.965 988.070h35.93v35.93h-35.93v-35.93zM1320.421 462.596h35.93v35.93h-35.93v-35.93zM130.246 462.596h35.93v35.93h-35.93v-35.93zM1720.14 462.596h35.93v35.93h-35.93v-35.93zM130.246 988.070h35.93v35.93h-35.93v-35.93zM925.193 462.596h35.93v35.93h-35.93v-35.93zM727.579 197.614h35.93v35.93h-35.93v-35.93zM2317.474 723.088h35.93v35.93h-35.93v-35.93zM1522.526 197.614h35.93v35.93h-35.93v-35.93zM1522.526 723.088h35.93v35.93h-35.93v-35.93zM327.86 197.614h35.93v35.93h-35.93v-35.93zM327.86 723.088h35.93v35.93h-35.93v-35.93zM1917.754 723.088h35.93v35.93h-35.93v-35.93zM1122.807 197.614h35.93v35.93h-35.93v-35.93zM2712.702 197.614h35.93v35.93h-35.93v-35.93zM727.579 462.596h35.93v35.93h-35.93v-35.93zM727.579 988.070h35.93v35.93h-35.93v-35.93zM1522.526 462.596h35.93v35.93h-35.93v-35.93zM3305.544 458.105h35.93v35.93h-35.93v-35.93zM327.86 462.596h35.93v35.93h-35.93v-35.93zM327.86 988.070h35.93v35.93h-35.93v-35.93zM1122.807 462.596h35.93v35.93h-35.93v-35.93z"></path>
</svg>
